<?xml version="1.0" standalone="no"?>
<!DOCTYPE svg PUBLIC "-//W3C//DTD SVG 20010904//EN"
 "http://www.w3.org/TR/2001/REC-SVG-20010904/DTD/svg10.dtd">
<svg version="1.0" xmlns="http://www.w3.org/2000/svg"
 width="512.000000pt" height="512.000000pt" viewBox="0 0 512.000000 512.000000"
 preserveAspectRatio="xMidYMid meet">
<metadata>
Created by potrace 1.14, written by Peter Selinger 2001-2017
</metadata>
<g transform="translate(0.000000,512.000000) scale(0.100000,-0.100000)"
fill="#000000" stroke="none">
<path d="M1059 5056 c-2 -2 -22 -7 -44 -10 -371 -59 -687 -283 -874 -618 -17
-32 -28 -58 -24 -58 4 0 3 -4 -3 -8 -11 -7 -58 -128 -69 -175 -2 -12 -10 -42
-16 -67 -6 -25 -14 -56 -17 -70 -3 -14 -7 -675 -8 -1470 -3 -1583 -6 -1505 56
-1691 16 -48 39 -109 51 -135 29 -63 99 -178 110 -182 5 -2 9 -9 9 -15 0 -17
131 -162 191 -211 54 -45 156 -116 166 -116 6 0 13 -3 15 -7 5 -12 212 -108
238 -110 3 -1 24 -6 48 -12 24 -7 58 -14 75 -17 18 -3 48 -8 67 -12 50 -10
3014 -8 3078 1 29 5 83 17 120 28 37 11 75 21 84 24 36 8 145 60 223 106 134
78 242 175 341 306 24 32 48 63 53 69 17 21 91 168 91 181 0 7 5 13 12 13 6 0
9 3 5 6 -3 3 3 28 13 54 24 61 47 150 57 220 10 70 11 2900 1 2960 -13 77 -18
99 -28 125 -5 14 -7 25 -4 25 4 0 0 7 -7 17 -8 9 -12 17 -10 17 17 4 -83 219
-142 306 -48 70 -150 187 -187 216 -8 7 -26 22 -40 34 -96 85 -312 203 -410
225 -3 1 -23 6 -45 13 -46 13 -79 20 -155 32 -52 8 -3013 14 -3021 6z"/>
</g>
</svg>
