<svg width="417" height="151" viewBox="0 0 417 151" fill="none" xmlns="http://www.w3.org/2000/svg">
<rect y="14" width="128" height="125" rx="10" fill="#E97356"/>
<path d="M45.2734 37.9922C45.8984 37.1328 46.5625 36.3906 47.2656 35.7656C48.0469 35.1406 48.8281 34.6328 49.6094 34.2422C50.4688 33.8516 51.3672 33.5391 52.3047 33.3047C53.0078 33.1484 53.6719 33.0703 54.2969 33.0703C54.8438 33.0703 55.3516 33.1094 55.8203 33.1875C56.3672 33.2656 56.7969 33.4609 57.1094 33.7734C56.9531 37.5234 56.7969 40.7266 56.6406 43.3828C56.5625 45.9609 56.4453 48.2266 56.2891 50.1797C56.2109 52.1328 56.1328 53.8906 56.0547 55.4531C55.9766 56.9375 55.8594 58.4609 55.7031 60.0234C55.625 61.5859 55.5078 63.3047 55.3516 65.1797C55.1953 66.9766 55.0391 69.1641 54.8828 71.7422C54.7266 73.3828 54.6094 75.0625 54.5312 76.7812C54.4531 78.4219 54.375 80.1016 54.2969 81.8203C55 79.8672 55.8594 77.8359 56.875 75.7266C57.9688 73.6172 59.2188 71.7031 60.625 69.9844C62.0312 68.2656 63.6328 66.8594 65.4297 65.7656C67.2266 64.5938 69.1797 64.0078 71.2891 64.0078C74.2578 64.0078 76.6406 64.8672 78.4375 66.5859C80.2344 68.3047 81.6016 70.4141 82.5391 72.9141C83.4766 75.3359 84.0625 77.9141 84.2969 80.6484C84.6094 83.3828 84.7656 85.8047 84.7656 87.9141C84.7656 89.9453 84.4922 92.3672 83.9453 95.1797C83.4766 97.9141 82.5781 100.57 81.25 103.148C80 105.648 78.3203 107.797 76.2109 109.594C74.1016 111.391 71.4453 112.289 68.2422 112.289C65.9766 112.289 64.0625 111.82 62.5 110.883C60.9375 109.945 59.6484 108.852 58.6328 107.602C57.6172 106.352 56.875 105.102 56.4062 103.852C56.0156 102.602 55.8203 101.703 55.8203 101.156C55.8203 100.609 56.0156 99.9844 56.4062 99.2812C56.7969 98.5 57.2656 97.7969 57.8125 97.1719C58.3594 96.4688 58.9453 95.9219 59.5703 95.5312C60.1953 95.0625 60.7031 94.8672 61.0938 94.9453C60.9375 97.5234 61.0938 99.5156 61.5625 100.922C62.1094 102.25 62.7344 103.227 63.4375 103.852C64.2969 104.633 65.2344 105.062 66.25 105.141C67.7344 105.141 69.0234 104.438 70.1172 103.031C71.2891 101.625 72.2656 99.9062 73.0469 97.875C73.8281 95.8438 74.4141 93.6562 74.8047 91.3125C75.2734 88.8906 75.5078 86.7422 75.5078 84.8672C75.5078 83.4609 75.3906 81.9766 75.1562 80.4141C75 78.7734 74.7266 77.2891 74.3359 75.9609C73.9453 74.5547 73.3984 73.4219 72.6953 72.5625C71.9922 71.7031 71.1328 71.2734 70.1172 71.2734C68.3984 71.2734 66.6016 72.25 64.7266 74.2031C62.8516 76.1562 61.1328 78.7344 59.5703 81.9375C58.0078 85.0625 56.7188 88.6172 55.7031 92.6016C54.6875 96.5859 54.2188 100.648 54.2969 104.789C54.2969 105.883 54.3359 106.859 54.4141 107.719C54.5703 108.5 54.7266 109.203 54.8828 109.828C53.0078 110.609 51.5234 111.078 50.4297 111.234C49.8047 111.391 49.2969 111.43 48.9062 111.352C47.8125 111.352 46.9141 111.039 46.2109 110.414C45.5078 109.789 45.0781 108.461 44.9219 106.43C44.8438 105.727 44.8047 103.812 44.8047 100.688C44.8047 97.4844 44.8047 93.6562 44.8047 89.2031C44.8047 84.6719 44.8047 79.7891 44.8047 74.5547C44.8828 69.3203 44.9219 64.2812 44.9219 59.4375C45 54.5938 45.0391 50.2578 45.0391 46.4297C45.1172 42.5234 45.1953 39.7109 45.2734 37.9922Z" fill="white"/>
<path d="M162.984 33.0625C162.828 35.875 162.555 39.1172 162.164 42.7891C161.773 46.4609 161.344 50.4062 160.875 54.625C160.484 58.8438 160.055 63.2578 159.586 67.8672C159.195 72.4766 158.844 77.125 158.531 81.8125C158.219 86.5 158.062 90.3281 158.062 93.2969C158.141 96.1875 158.336 98.5703 158.648 100.445C158.961 102.32 159.391 103.805 159.938 104.898C160.484 105.992 161.188 107.047 162.047 108.062C161.031 108.688 160.094 109.156 159.234 109.469C158.375 109.781 157.633 110.016 157.008 110.172C156.227 110.406 155.523 110.523 154.898 110.523C153.727 110.523 152.711 109.977 151.852 108.883C150.992 107.711 150.289 106.227 149.742 104.43C149.273 102.633 148.883 100.641 148.57 98.4531C148.336 96.1875 148.219 93.9609 148.219 91.7734C148.219 89.4297 148.297 86.7344 148.453 83.6875C148.609 80.5625 148.766 77.2812 148.922 73.8438C149.156 70.3281 149.391 66.6953 149.625 62.9453C149.859 59.1172 150.055 55.3281 150.211 51.5781C150.367 48.6875 150.523 46.0703 150.68 43.7266C150.836 41.6953 150.953 39.8594 151.031 38.2188C151.109 36.5 151.07 35.4844 150.914 35.1719C151.383 34.5469 151.969 34.0781 152.672 33.7656C153.375 33.4531 154.039 33.1797 154.664 32.9453C155.445 32.7109 156.227 32.5156 157.008 32.3594H159.234C159.859 32.3594 160.523 32.4375 161.227 32.5938C161.93 32.6719 162.516 32.8281 162.984 33.0625ZM200.836 88.8438C200.68 91.8906 200.133 94.7031 199.195 97.2812C198.336 99.8594 197.125 102.125 195.562 104.078C194 105.953 192.125 107.438 189.938 108.531C187.828 109.625 185.484 110.211 182.906 110.289C180.641 110.367 178.492 109.82 176.461 108.648C174.508 107.477 172.789 105.836 171.305 103.727C169.82 101.617 168.688 99.1172 167.906 96.2266C167.203 93.2578 167.008 90.0547 167.32 86.6172C167.555 82.6328 168.297 79.2344 169.547 76.4219C170.797 73.5312 172.125 71.1484 173.531 69.2734C174.938 67.3984 176.227 66.0312 177.398 65.1719C178.648 64.2344 179.43 63.6875 179.742 63.5312C180.289 63.2969 180.797 63.2578 181.266 63.4141C181.734 63.4922 182.242 63.6094 182.789 63.7656C182.945 63.8438 183.102 64.0391 183.258 64.3516C183.57 64.8984 183.766 65.9141 183.844 67.3984C184.234 66.5391 184.742 65.8359 185.367 65.2891C185.992 64.7422 186.617 64.3516 187.242 64.1172C188.023 63.8047 188.805 63.6094 189.586 63.5312C190.133 63.4531 191.07 63.8828 192.398 64.8203C193.805 65.7578 195.133 67.2422 196.383 69.2734C197.711 71.3047 198.844 73.9609 199.781 77.2422C200.719 80.4453 201.07 84.3125 200.836 88.8438ZM192.867 87.4375C192.945 85.5625 192.867 83.6875 192.633 81.8125C192.477 79.8594 192.164 78.1016 191.695 76.5391C191.305 74.8984 190.797 73.6094 190.172 72.6719C189.547 71.6562 188.922 71.1484 188.297 71.1484C187.594 71.3047 186.812 71.6562 185.953 72.2031C185.25 72.6719 184.469 73.4141 183.609 74.4297C182.75 75.4453 181.93 76.8906 181.148 78.7656C181.07 78.5312 180.992 78.1016 180.914 77.4766C180.836 76.9297 180.758 76.2266 180.68 75.3672C180.68 74.4297 180.758 73.1797 180.914 71.6172C179.82 72.9453 178.961 74.5078 178.336 76.3047C177.789 78.1016 177.359 79.8203 177.047 81.4609C176.734 83.4141 176.5 85.3672 176.344 87.3203C176.266 89.4297 176.344 91.5 176.578 93.5312C176.891 95.5625 177.359 97.3594 177.984 98.9219C178.688 100.484 179.508 101.734 180.445 102.672C181.383 103.609 182.516 104.039 183.844 103.961C185.172 103.883 186.344 103.336 187.359 102.32C188.375 101.305 189.273 100.016 190.055 98.4531C190.836 96.8906 191.461 95.1328 191.93 93.1797C192.398 91.2266 192.711 89.3125 192.867 87.4375ZM220.055 110.055C218.414 110.055 216.734 109.625 215.016 108.766C213.297 107.906 211.695 106.617 210.211 104.898C208.727 103.102 207.516 100.914 206.578 98.3359C205.641 95.6797 205.172 92.5938 205.172 89.0781C205.172 83.9219 205.836 79.6641 207.164 76.3047C208.492 72.8672 210.094 70.1328 211.969 68.1016C213.922 65.9922 216.031 64.5078 218.297 63.6484C220.562 62.7891 222.633 62.3594 224.508 62.3594C226.461 62.3594 228.062 62.7109 229.312 63.4141C230.641 64.0391 231.734 64.7812 232.594 65.6406V63.4141C233.062 63.0234 233.57 62.6719 234.117 62.3594C234.742 62.0469 235.367 61.8125 235.992 61.6562C236.617 61.4219 237.281 61.3047 237.984 61.3047H239.742C240.211 61.3828 240.68 61.4609 241.148 61.5391C241.695 61.6172 242.086 61.8125 242.32 62.125C241.852 72.3594 241.461 80.6406 241.148 86.9688C240.836 93.2969 240.602 98.2188 240.445 101.734C240.211 105.875 240.055 108.883 239.977 110.758C239.82 114.039 239.391 117.281 238.688 120.484C237.984 123.766 236.891 126.695 235.406 129.273C233.922 131.852 231.969 133.922 229.547 135.484C227.125 137.047 224.156 137.828 220.641 137.828C217.594 137.828 215.133 137.242 213.258 136.07C211.461 134.898 210.055 133.453 209.039 131.734C208.102 130.016 207.477 128.18 207.164 126.227C206.852 124.352 206.695 122.633 206.695 121.07C206.695 120.68 206.891 120.094 207.281 119.312C207.75 118.531 208.375 117.711 209.156 116.852C210.016 116.07 211.07 115.367 212.32 114.742C213.57 114.117 214.977 113.727 216.539 113.57C215.836 115.68 215.406 117.594 215.25 119.312C215.094 120.25 215.055 121.188 215.133 122.125C215.133 124.703 215.641 126.852 216.656 128.57C217.672 130.289 219.234 131.148 221.344 131.148C223.609 131.148 225.445 130.172 226.852 128.219C228.258 126.344 229.312 124.039 230.016 121.305C230.797 118.648 231.305 115.836 231.539 112.867C231.852 109.977 232.008 107.516 232.008 105.484V102.086C231.539 102.945 230.953 103.844 230.25 104.781C229.625 105.719 228.844 106.578 227.906 107.359C226.969 108.141 225.836 108.766 224.508 109.234C223.258 109.781 221.773 110.055 220.055 110.055ZM224.859 69.0391C223.531 69.0391 222.242 69.625 220.992 70.7969C219.82 71.9688 218.766 73.5312 217.828 75.4844C216.891 77.3594 216.148 79.5078 215.602 81.9297C215.055 84.3516 214.781 86.7734 214.781 89.1953C214.781 90.7578 214.859 92.3594 215.016 94C215.25 95.6406 215.641 97.1641 216.188 98.5703C216.812 99.8984 217.594 100.992 218.531 101.852C219.469 102.711 220.719 103.141 222.281 103.141C223.453 103.062 224.547 102.594 225.562 101.734C226.422 101.031 227.281 99.8984 228.141 98.3359C229.078 96.7734 229.82 94.5469 230.367 91.6562C230.992 92.2812 231.461 92.8672 231.773 93.4141C232.164 93.9609 232.477 94.4688 232.711 94.9375C232.789 94.3125 232.828 93.5703 232.828 92.7109C232.906 91.8516 232.945 90.875 232.945 89.7812C232.945 87.6719 232.828 85.4062 232.594 82.9844C232.359 80.4844 231.93 78.2188 231.305 76.1875C230.758 74.1562 229.938 72.4766 228.844 71.1484C227.828 69.7422 226.5 69.0391 224.859 69.0391ZM262.477 110.055C260.836 110.055 259.156 109.625 257.438 108.766C255.719 107.906 254.117 106.617 252.633 104.898C251.148 103.102 249.938 100.914 249 98.3359C248.062 95.6797 247.594 92.5938 247.594 89.0781C247.594 83.9219 248.258 79.6641 249.586 76.3047C250.914 72.8672 252.516 70.1328 254.391 68.1016C256.344 65.9922 258.453 64.5078 260.719 63.6484C262.984 62.7891 265.055 62.3594 266.93 62.3594C268.883 62.3594 270.484 62.7109 271.734 63.4141C273.062 64.0391 274.156 64.7812 275.016 65.6406V63.4141C275.484 63.0234 275.992 62.6719 276.539 62.3594C277.164 62.0469 277.789 61.8125 278.414 61.6562C279.039 61.4219 279.703 61.3047 280.406 61.3047H282.164C282.633 61.3828 283.102 61.4609 283.57 61.5391C284.117 61.6172 284.508 61.8125 284.742 62.125C284.273 72.3594 283.883 80.6406 283.57 86.9688C283.258 93.2969 283.023 98.2188 282.867 101.734C282.633 105.875 282.477 108.883 282.398 110.758C282.242 114.039 281.812 117.281 281.109 120.484C280.406 123.766 279.312 126.695 277.828 129.273C276.344 131.852 274.391 133.922 271.969 135.484C269.547 137.047 266.578 137.828 263.062 137.828C260.016 137.828 257.555 137.242 255.68 136.07C253.883 134.898 252.477 133.453 251.461 131.734C250.523 130.016 249.898 128.18 249.586 126.227C249.273 124.352 249.117 122.633 249.117 121.07C249.117 120.68 249.312 120.094 249.703 119.312C250.172 118.531 250.797 117.711 251.578 116.852C252.438 116.07 253.492 115.367 254.742 114.742C255.992 114.117 257.398 113.727 258.961 113.57C258.258 115.68 257.828 117.594 257.672 119.312C257.516 120.25 257.477 121.188 257.555 122.125C257.555 124.703 258.062 126.852 259.078 128.57C260.094 130.289 261.656 131.148 263.766 131.148C266.031 131.148 267.867 130.172 269.273 128.219C270.68 126.344 271.734 124.039 272.438 121.305C273.219 118.648 273.727 115.836 273.961 112.867C274.273 109.977 274.43 107.516 274.43 105.484V102.086C273.961 102.945 273.375 103.844 272.672 104.781C272.047 105.719 271.266 106.578 270.328 107.359C269.391 108.141 268.258 108.766 266.93 109.234C265.68 109.781 264.195 110.055 262.477 110.055ZM267.281 69.0391C265.953 69.0391 264.664 69.625 263.414 70.7969C262.242 71.9688 261.188 73.5312 260.25 75.4844C259.312 77.3594 258.57 79.5078 258.023 81.9297C257.477 84.3516 257.203 86.7734 257.203 89.1953C257.203 90.7578 257.281 92.3594 257.438 94C257.672 95.6406 258.062 97.1641 258.609 98.5703C259.234 99.8984 260.016 100.992 260.953 101.852C261.891 102.711 263.141 103.141 264.703 103.141C265.875 103.062 266.969 102.594 267.984 101.734C268.844 101.031 269.703 99.8984 270.562 98.3359C271.5 96.7734 272.242 94.5469 272.789 91.6562C273.414 92.2812 273.883 92.8672 274.195 93.4141C274.586 93.9609 274.898 94.4688 275.133 94.9375C275.211 94.3125 275.25 93.5703 275.25 92.7109C275.328 91.8516 275.367 90.875 275.367 89.7812C275.367 87.6719 275.25 85.4062 275.016 82.9844C274.781 80.4844 274.352 78.2188 273.727 76.1875C273.18 74.1562 272.359 72.4766 271.266 71.1484C270.25 69.7422 268.922 69.0391 267.281 69.0391ZM319.312 102.672C317.984 104.938 316.188 106.891 313.922 108.531C311.734 110.172 308.922 110.992 305.484 110.992C303.375 110.992 301.383 110.484 299.508 109.469C297.711 108.453 296.148 107.047 294.82 105.25C293.492 103.453 292.438 101.305 291.656 98.8047C290.953 96.3047 290.602 93.5703 290.602 90.6016C290.602 86.2266 291.188 82.3203 292.359 78.8828C293.609 75.4453 295.211 72.5547 297.164 70.2109C299.195 67.8672 301.422 66.0703 303.844 64.8203C306.344 63.5703 308.844 62.9453 311.344 62.9453C312.594 62.9453 313.727 63.1797 314.742 63.6484C315.758 64.1172 316.656 64.7422 317.438 65.5234C318.219 66.2266 318.883 67.0078 319.43 67.8672C320.055 68.7266 320.602 69.5078 321.07 70.2109C321.07 68.4141 321.031 66.8125 320.953 65.4062C320.875 63.9219 320.719 62.75 320.484 61.8906C321.578 62.2031 322.516 62.5156 323.297 62.8281C324.156 63.1406 324.859 63.4531 325.406 63.7656C326.031 64.0781 326.578 64.4297 327.047 64.8203C328.141 65.8359 328.805 66.8906 329.039 67.9844C329.273 69.0781 329.234 70.6406 328.922 72.6719C328.766 73.6875 328.57 75.5625 328.336 78.2969C328.102 81.0312 327.867 84.0391 327.633 87.3203C327.398 90.6016 327.164 93.9219 326.93 97.2812C326.773 100.641 326.656 103.453 326.578 105.719C326.422 108.531 326.383 111.422 326.461 114.391C326.539 117.359 326.656 120.211 326.812 122.945C327.047 125.68 327.32 128.258 327.633 130.68C328.023 133.18 328.453 135.367 328.922 137.242C328.453 137.867 327.828 138.297 327.047 138.531C326.344 138.844 325.641 139.039 324.938 139.117C324.078 139.273 323.258 139.273 322.477 139.117C320.211 138.883 318.805 138.062 318.258 136.656C317.711 135.328 317.438 133.531 317.438 131.266C317.438 130.484 317.477 129.117 317.555 127.164C317.711 125.211 317.867 122.906 318.023 120.25C318.258 117.672 318.453 114.859 318.609 111.812C318.844 108.766 319.078 105.719 319.312 102.672ZM308.531 104.664C309.469 104.664 310.602 104.234 311.93 103.375C313.258 102.438 314.508 101.148 315.68 99.5078C316.852 97.8672 317.867 95.9141 318.727 93.6484C319.586 91.3047 320.016 88.7266 320.016 85.9141C320.016 82.8672 319.703 80.25 319.078 78.0625C318.453 75.7969 317.672 73.9609 316.734 72.5547C315.797 71.1484 314.82 70.1328 313.805 69.5078C312.789 68.8047 311.891 68.4531 311.109 68.4531C309.312 68.4531 307.75 69 306.422 70.0938C305.172 71.1875 304.117 72.6328 303.258 74.4297C302.477 76.1484 301.852 78.1406 301.383 80.4062C300.992 82.6719 300.758 84.9766 300.68 87.3203C300.68 89.5078 300.836 91.6562 301.148 93.7656C301.539 95.7969 302.086 97.6328 302.789 99.2734C303.492 100.914 304.312 102.242 305.25 103.258C306.266 104.195 307.359 104.664 308.531 104.664ZM363.141 65.4062C363.141 64.5469 363.648 63.9219 364.664 63.5312C365.758 63.0625 366.891 62.8281 368.062 62.8281C369.312 62.8281 370.445 63.0625 371.461 63.5312C372.477 63.9219 372.945 64.4688 372.867 65.1719C372.789 65.7188 372.711 66.8125 372.633 68.4531C372.555 70.0156 372.438 71.8906 372.281 74.0781C372.203 76.2656 372.086 78.6094 371.93 81.1094C371.773 83.6094 371.617 86.0703 371.461 88.4922C371.383 90.8359 371.305 93.0234 371.227 95.0547C371.227 97.0859 371.227 98.6484 371.227 99.7422C371.227 101.148 371.305 102.438 371.461 103.609C371.617 104.625 371.812 105.641 372.047 106.656C372.281 107.594 372.633 108.258 373.102 108.648C372.477 108.883 371.812 109.039 371.109 109.117C370.484 109.195 369.898 109.273 369.352 109.352C368.727 109.43 368.102 109.469 367.477 109.469C366.148 109.469 365.016 109.195 364.078 108.648C363.219 108.102 362.789 106.969 362.789 105.25C362.789 104.391 362.828 103.141 362.906 101.5C363.062 99.8594 363.219 98.1016 363.375 96.2266C362.828 97.8672 362.164 99.5469 361.383 101.266C360.602 102.984 359.625 104.508 358.453 105.836C357.359 107.164 356.109 108.258 354.703 109.117C353.297 109.977 351.695 110.406 349.898 110.406C347.867 110.406 345.992 109.977 344.273 109.117C342.633 108.258 341.188 107.047 339.938 105.484C338.688 103.844 337.75 101.852 337.125 99.5078C336.5 97.1641 336.266 94.4688 336.422 91.4219C336.422 89.0781 336.461 86.5781 336.539 83.9219C336.617 81.6562 336.734 79.0391 336.891 76.0703C337.047 73.1016 337.32 70.0156 337.711 66.8125C337.789 66.5 338.336 66.1094 339.352 65.6406C340.367 65.1719 341.5 64.7812 342.75 64.4688C344 64.1562 345.211 64.0391 346.383 64.1172C347.555 64.1953 348.414 64.6641 348.961 65.5234C348.57 66.9297 348.18 68.6094 347.789 70.5625C347.398 72.4375 347.047 74.3906 346.734 76.4219C346.422 78.4531 346.188 80.4453 346.031 82.3984C345.875 84.3516 345.797 86.1484 345.797 87.7891C345.797 89.2734 345.875 90.9141 346.031 92.7109C346.188 94.4297 346.461 96.0703 346.852 97.6328C347.32 99.1172 347.945 100.367 348.727 101.383C349.586 102.398 350.68 102.906 352.008 102.906C353.492 102.906 354.781 102.281 355.875 101.031C357.047 99.7031 358.023 98.0234 358.805 95.9922C359.586 93.9609 360.25 91.6562 360.797 89.0781C361.344 86.4219 361.773 83.8047 362.086 81.2266C362.477 78.6484 362.711 76.1875 362.789 73.8438C362.945 71.4219 363.062 69.3906 363.141 67.75V65.4062ZM396.773 110.289C391.305 110.289 387.086 108.453 384.117 104.781C381.148 101.109 379.664 96.3047 379.664 90.3672C379.664 86.2266 380.25 82.3594 381.422 78.7656C382.672 75.0938 384.312 71.9297 386.344 69.2734C388.375 66.6172 390.719 64.5469 393.375 63.0625C396.109 61.5 398.961 60.7188 401.93 60.7188C404.82 60.7188 407.281 61.7734 409.312 63.8828C411.344 65.9141 412.359 68.8438 412.359 72.6719C412.359 75.1719 411.812 77.6719 410.719 80.1719C409.625 82.5938 408.18 84.7812 406.383 86.7344C404.664 88.6094 402.75 90.1328 400.641 91.3047C398.531 92.4766 396.5 93.0625 394.547 93.0625C393.297 93.0625 392.242 92.9062 391.383 92.5938C390.523 92.2812 389.742 91.8125 389.039 91.1875C389.273 95.6406 390.25 98.7656 391.969 100.562C393.688 102.281 395.914 103.141 398.648 103.141C400.523 103.141 402.164 102.75 403.57 101.969C405.055 101.188 406.305 100.289 407.32 99.2734C408.336 98.2578 409.156 97.2422 409.781 96.2266C410.406 95.1328 410.836 94.3125 411.07 93.7656C411.305 93.2969 411.695 93.0625 412.242 93.0625C412.867 93.0625 413.18 93.5312 413.18 94.4688C413.18 95.3281 412.867 96.6562 412.242 98.4531C411.695 100.172 410.758 101.93 409.43 103.727C408.102 105.445 406.383 106.969 404.273 108.297C402.242 109.625 399.742 110.289 396.773 110.289ZM402.164 65.7578C401.695 65.7578 400.797 66.2656 399.469 67.2812C398.219 68.2188 396.852 69.625 395.367 71.5C393.961 73.375 392.633 75.6406 391.383 78.2969C390.211 80.875 389.469 83.8047 389.156 87.0859C393.844 85.9922 397.555 84.2734 400.289 81.9297C403.023 79.5859 404.391 76.1484 404.391 71.6172C404.391 69.3516 404.117 67.8281 403.57 67.0469C403.023 66.1875 402.555 65.7578 402.164 65.7578Z" fill="black"/>
</svg>
