<svg width="128" height="125" viewBox="0 0 128 125" fill="none" xmlns="http://www.w3.org/2000/svg">
<rect width="128" height="125" rx="10" fill="#E97356"/>
<path d="M45.2734 27.9922C45.8984 27.1328 46.5625 26.3906 47.2656 25.7656C48.0469 25.1406 48.8281 24.6328 49.6094 24.2422C50.4688 23.8516 51.3672 23.5391 52.3047 23.3047C53.0078 23.1484 53.6719 23.0703 54.2969 23.0703C54.8438 23.0703 55.3516 23.1094 55.8203 23.1875C56.3672 23.2656 56.7969 23.4609 57.1094 23.7734C56.9531 27.5234 56.7969 30.7266 56.6406 33.3828C56.5625 35.9609 56.4453 38.2266 56.2891 40.1797C56.2109 42.1328 56.1328 43.8906 56.0547 45.4531C55.9766 46.9375 55.8594 48.4609 55.7031 50.0234C55.625 51.5859 55.5078 53.3047 55.3516 55.1797C55.1953 56.9766 55.0391 59.1641 54.8828 61.7422C54.7266 63.3828 54.6094 65.0625 54.5312 66.7812C54.4531 68.4219 54.375 70.1016 54.2969 71.8203C55 69.8672 55.8594 67.8359 56.875 65.7266C57.9688 63.6172 59.2188 61.7031 60.625 59.9844C62.0312 58.2656 63.6328 56.8594 65.4297 55.7656C67.2266 54.5938 69.1797 54.0078 71.2891 54.0078C74.2578 54.0078 76.6406 54.8672 78.4375 56.5859C80.2344 58.3047 81.6016 60.4141 82.5391 62.9141C83.4766 65.3359 84.0625 67.9141 84.2969 70.6484C84.6094 73.3828 84.7656 75.8047 84.7656 77.9141C84.7656 79.9453 84.4922 82.3672 83.9453 85.1797C83.4766 87.9141 82.5781 90.5703 81.25 93.1484C80 95.6484 78.3203 97.7969 76.2109 99.5938C74.1016 101.391 71.4453 102.289 68.2422 102.289C65.9766 102.289 64.0625 101.82 62.5 100.883C60.9375 99.9453 59.6484 98.8516 58.6328 97.6016C57.6172 96.3516 56.875 95.1016 56.4062 93.8516C56.0156 92.6016 55.8203 91.7031 55.8203 91.1562C55.8203 90.6094 56.0156 89.9844 56.4062 89.2812C56.7969 88.5 57.2656 87.7969 57.8125 87.1719C58.3594 86.4688 58.9453 85.9219 59.5703 85.5312C60.1953 85.0625 60.7031 84.8672 61.0938 84.9453C60.9375 87.5234 61.0938 89.5156 61.5625 90.9219C62.1094 92.25 62.7344 93.2266 63.4375 93.8516C64.2969 94.6328 65.2344 95.0625 66.25 95.1406C67.7344 95.1406 69.0234 94.4375 70.1172 93.0312C71.2891 91.625 72.2656 89.9062 73.0469 87.875C73.8281 85.8438 74.4141 83.6562 74.8047 81.3125C75.2734 78.8906 75.5078 76.7422 75.5078 74.8672C75.5078 73.4609 75.3906 71.9766 75.1562 70.4141C75 68.7734 74.7266 67.2891 74.3359 65.9609C73.9453 64.5547 73.3984 63.4219 72.6953 62.5625C71.9922 61.7031 71.1328 61.2734 70.1172 61.2734C68.3984 61.2734 66.6016 62.25 64.7266 64.2031C62.8516 66.1562 61.1328 68.7344 59.5703 71.9375C58.0078 75.0625 56.7188 78.6172 55.7031 82.6016C54.6875 86.5859 54.2188 90.6484 54.2969 94.7891C54.2969 95.8828 54.3359 96.8594 54.4141 97.7188C54.5703 98.5 54.7266 99.2031 54.8828 99.8281C53.0078 100.609 51.5234 101.078 50.4297 101.234C49.8047 101.391 49.2969 101.43 48.9062 101.352C47.8125 101.352 46.9141 101.039 46.2109 100.414C45.5078 99.7891 45.0781 98.4609 44.9219 96.4297C44.8438 95.7266 44.8047 93.8125 44.8047 90.6875C44.8047 87.4844 44.8047 83.6562 44.8047 79.2031C44.8047 74.6719 44.8047 69.7891 44.8047 64.5547C44.8828 59.3203 44.9219 54.2812 44.9219 49.4375C45 44.5938 45.0391 40.2578 45.0391 36.4297C45.1172 32.5234 45.1953 29.7109 45.2734 27.9922Z" fill="white"/>
</svg>
